<svg xmlns="http://www.w3.org/2000/svg" width="1024" height="1024" viewBox="0 0 1024 1024">
  <defs>
    <linearGradient id="g1" x1="0" y1="0" x2="1" y2="1">
      <stop offset="0" stop-color="#38bdf8"/>
      <stop offset="1" stop-color="#a78bfa"/>
    </linearGradient>
  </defs>
  <rect x="0" y="0" width="1024" height="1024" rx="220" fill="url(#g1)"/>
  <!-- yıldız -->
  <path fill="#fde047" d="M512 196 l40 92 100 10 -76 66 23 98 -87 -53 -87 53 23 -98 -76 -66 100 -10 Z"/>
  <!-- açık kitap -->
  <path fill="#ffffff" d="M512 470 C 430 430 320 430 236 462 L 236 726 C 320 690 430 690 512 728 Z"/>
  <path fill="#ffffff" d="M512 470 C 594 430 704 430 788 462 L 788 726 C 704 690 594 690 512 728 Z"/>
  <g stroke="#bae6fd" stroke-width="10" stroke-linecap="round">
    <line x1="300" y1="520" x2="470" y2="510"/>
    <line x1="300" y1="572" x2="470" y2="562"/>
    <line x1="300" y1="624" x2="470" y2="614"/>
    <line x1="554" y1="510" x2="724" y2="520"/>
    <line x1="554" y1="562" x2="724" y2="572"/>
    <line x1="554" y1="614" x2="724" y2="624"/>
  </g>
  <rect x="506" y="470" width="12" height="258" fill="#e2e8f0"/>
</svg>
