<svg xmlns="http://www.w3.org/2000/svg" width="2732" height="2732" viewBox="0 0 2732 2732">
  <defs><linearGradient id="bgp" x1="0" y1="0" x2="0" y2="1">
    <stop offset="0" stop-color="#bae6fd"/><stop offset="1" stop-color="#ddd6fe"/>
  </linearGradient></defs>
  <rect width="2732" height="2732" fill="url(#bgp)"/>
  <g transform="translate(1366,1180) scale(1.4)">
    <path fill="#fbbf24" d="M0 -210 l40 92 100 10 -76 66 23 98 -87 -53 -87 53 23 -98 -76 -66 100 -10 Z"/>
    <path fill="#ffffff" d="M0 70 C -82 30 -192 30 -276 62 L -276 326 C -192 290 -82 290 0 328 Z"/>
    <path fill="#ffffff" d="M0 70 C 82 30 192 30 276 62 L 276 326 C 192 290 82 290 0 328 Z"/>
    <rect x="-6" y="70" width="12" height="258" fill="#cbd5e1"/>
  </g>
  <text x="1366" y="1820" text-anchor="middle" font-family="sans-serif" font-weight="bold" font-size="150" fill="#1e3a5f">Kur'an Yolculuğu</text>
  <text x="1366" y="1960" text-anchor="middle" font-family="sans-serif" font-size="86" fill="#64748b">Eğlenerek Elif-Ba</text>
</svg>
